<svg viewBox="0 0 600 400" xmlns="http://www.w3.org/2000/svg">
<g transform="translate(72, 364)">
<g>
<g>
<path d="M210,-329.53845 L210,-329.53845" fill="none" stroke="#CFA7AB" stroke-linejoin="round" stroke-width="2"/>
</g>
<g>
<rect fill="#CFA7AB" height="10" width="10" x="205" y="-334.53846153846155"/>
</g>
</g>
<g>
<g>
<path d="M210,-304.43076 L210,-304.43076 L440,-301.2923" fill="none" stroke="#8A62CE" stroke-linejoin="round" stroke-width="2"/>
</g>
<g>
<rect fill="#8A62CE" height="10" width="10" x="205" y="-309.4307692307692"/>
<rect fill="#8A62CE" height="10" width="10" x="435" y="-306.2923076923077"/>
</g>
</g>
<g>
<g>
<path d="M210,-190.92308 L210,-190.92308" fill="none" stroke="#AD33FE" stroke-linejoin="round" stroke-width="2"/>
</g>
<g>
<rect fill="#AD33FE" height="10" width="10" x="205" y="-195.92307692307693"/>
</g>
</g>
<g>
<g>
<path d="M210,-143.84616 L210,-143.84616 L440,-157.96924" fill="none" stroke="#BD991D" stroke-linejoin="round" stroke-width="2"/>
</g>
<g>
<rect fill="#BD991D" height="10" width="10" x="205" y="-148.84615384615384"/>
<rect fill="#BD991D" height="10" width="10" x="435" y="-162.96923076923076"/>
</g>
</g>
<g>
<g>
<path d="M214.33333,-248.98462 L214.33333,-248.98462 L261.77777,-167.9077 L317.33334,-158.49231 L388.66666,-132.33846 L428,-246.36923 L433.66666,-264.15384" fill="none" stroke="#888C80" stroke-linejoin="round" stroke-width="2"/>
</g>
<g>
<rect fill="#888C80" height="10" width="10" x="209.33333333333334" y="-253.98461538461538"/>
<rect fill="#888C80" height="10" width="10" x="256.77777777777777" y="-172.90769230769232"/>
<rect fill="#888C80" height="10" width="10" x="312.3333333333333" y="-163.4923076923077"/>
<rect fill="#888C80" height="10" width="10" x="383.6666666666667" y="-137.33846153846153"/>
<rect fill="#888C80" height="10" width="10" x="423" y="-251.36923076923077"/>
<rect fill="#888C80" height="10" width="10" x="428.6666666666667" y="-269.15384615384613"/>
</g>
</g>
<g>
<g>
<path d="M13.666667,-166.33846 L13.666667,-166.33846 L188,-114.55385 L211,-212.8923 L255.33333,-175.75385 L293,-173.66154 L373.33334,-68.52308 L420,-60.67692 L464.66666,-90.49231" fill="none" stroke="#A34879" stroke-linejoin="round" stroke-width="2"/>
</g>
<g>
<rect fill="#A34879" height="10" width="10" x="8.666666666666666" y="-171.33846153846153"/>
<rect fill="#A34879" height="10" width="10" x="183" y="-119.55384615384615"/>
<rect fill="#A34879" height="10" width="10" x="206" y="-217.8923076923077"/>
<rect fill="#A34879" height="10" width="10" x="250.33333333333334" y="-180.75384615384615"/>
<rect fill="#A34879" height="10" width="10" x="288" y="-178.66153846153847"/>
<rect fill="#A34879" height="10" width="10" x="368.3333333333333" y="-73.52307692307693"/>
<rect fill="#A34879" height="10" width="10" x="415" y="-65.67692307692307"/>
<rect fill="#A34879" height="10" width="10" x="459.6666666666667" y="-95.49230769230769"/>
</g>
</g>
<g>
<g>
<path d="M210.66667,-108.276924 L210.66667,-108.276924 L260,-258.4 L285.33334,-112.46154 L332.66666,-141.75385 L359.33334,-183.07692 L380.33334,-99.38461 L461.83334,-221.26154" fill="none" stroke="#D5FAD4" stroke-linejoin="round" stroke-width="2"/>
</g>
<g>
<rect fill="#D5FAD4" height="10" width="10" x="205.66666666666666" y="-113.27692307692308"/>
<rect fill="#D5FAD4" height="10" width="10" x="255" y="-263.4"/>
<rect fill="#D5FAD4" height="10" width="10" x="280.3333333333333" y="-117.46153846153847"/>
<rect fill="#D5FAD4" height="10" width="10" x="327.6666666666667" y="-146.75384615384615"/>
<rect fill="#D5FAD4" height="10" width="10" x="354.3333333333333" y="-188.07692307692307"/>
<rect fill="#D5FAD4" height="10" width="10" x="375.3333333333333" y="-104.38461538461539"/>
<rect fill="#D5FAD4" height="10" width="10" x="456.8333333333333" y="-226.26153846153846"/>
</g>
</g>
<g>
<g>
<path d="M33.333332,-166.86154 L33.333332,-166.86154 L200,-83.16923 L216.66667,-54.923077 L257,-57.015385 L277,-73.753845" fill="none" stroke="#E30295" stroke-linejoin="round" stroke-width="2"/>
</g>
<g>
<rect fill="#E30295" height="10" width="10" x="28.333333333333336" y="-171.86153846153846"/>
<rect fill="#E30295" height="10" width="10" x="195" y="-88.16923076923077"/>
<rect fill="#E30295" height="10" width="10" x="211.66666666666666" y="-59.92307692307692"/>
<rect fill="#E30295" height="10" width="10" x="252" y="-62.01538461538462"/>
<rect fill="#E30295" height="10" width="10" x="272" y="-78.75384615384615"/>
</g>
</g>
<g>
<g>
<line stroke="black" stroke-width="1" x1="0" x2="0" y1="0" y2="10"/>
<line stroke="black" stroke-width="1" x1="100" x2="100" y1="0" y2="10"/>
<line stroke="black" stroke-width="1" x1="200" x2="200" y1="0" y2="10"/>
<line stroke="black" stroke-width="1" x1="300" x2="300" y1="0" y2="10"/>
<line stroke="black" stroke-width="1" x1="400" x2="400" y1="0" y2="10"/>
</g>
<line stroke="black" stroke-width="1" x1="0" x2="480" y1="0" y2="0"/>
<g>
<text font-size="12" text-anchor="middle" x="0" y="20">
0
</text>
<text font-size="12" text-anchor="middle" x="100" y="20">
5
</text>
<text font-size="12" text-anchor="middle" x="200" y="20">
10
</text>
<text font-size="12" text-anchor="middle" x="300" y="20">
15
</text>
<text font-size="12" text-anchor="middle" x="400" y="20">
20
</text>
</g>
<text font-size="12" text-anchor="middle" x="240" y="30">
Some varying variable
</text>
</g>
<g>
<g>
<line stroke="black" stroke-width="1" x1="0" x2="-10" y1="-0" y2="-0"/>
<line stroke="black" stroke-width="1" x1="0" x2="-10" y1="-104.61538461538461" y2="-104.61538461538461"/>
<line stroke="black" stroke-width="1" x1="0" x2="-10" y1="-209.23076923076923" y2="-209.23076923076923"/>
<line stroke="black" stroke-width="1" x1="0" x2="-10" y1="-313.84615384615387" y2="-313.84615384615387"/>
</g>
<line stroke="black" stroke-width="1" x1="0" x2="0" y1="0" y2="-340"/>
<g>
<text dominant-baseline="middle" font-size="12" text-anchor="end" x="-15" y="-0">
0
</text>
<text dominant-baseline="middle" font-size="12" text-anchor="end" x="-15" y="-104.61538461538461">
200
</text>
<text dominant-baseline="middle" font-size="12" text-anchor="end" x="-15" y="-209.23076923076923">
400
</text>
<text dominant-baseline="middle" font-size="12" text-anchor="end" x="-15" y="-313.84615384615387">
600
</text>
</g>
<text font-size="12" text-anchor="middle" transform="rotate(-90 -36 -170)" x="-36" y="-182">
The response of something
</text>
</g>
</g>
</svg>